<svg xmlns="http://www.w3.org/2000/svg" width="142.402" height="27.273"><g data-name="グループ 551"><g data-name="グループ 550"><g data-name="グループ 550"><g data-name="グループ 118"><path data-name="パス 4" d="M8.954 22.261c-.222-.177-.2-.424.079-.584l.881-.508a1.235 1.235 0 011.009-.046z" fill="#f77d25"/><g data-name="グループ 117"><path data-name="パス 5" d="M9.292 6.706c-.258-.205-.229-.494.092-.679l1.026-.593a1.445 1.445 0 011.179-.053z" fill="#0077bf"/><path data-name="パス 6" d="M20.549 14.954l-9.161 5.509-.192-.11V5.398l9.352-5.4.192.111z" fill="#0077bf"/><path data-name="パス 7" d="M20.741 15.064l-9.353 5.4V5.509l9.353-5.4z" fill="#028dd3"/><g data-name="グループ 116"><path data-name="パス 8" d="M9.351 21.417l-9.16 5.51L0 26.816V11.863l9.351-5.4.192.111z" fill="#0077bf"/><path data-name="パス 9" d="M9.543 21.527l-9.352 5.4V11.972l9.352-5.4z" fill="#028dd3"/></g><path data-name="パス 10" d="M20.511 14.789l-10.053 5.825V6.246L20.512.422z" fill="#e9e9e9"/><path data-name="パス 11" d="M21.277 15.231l-10.054 5.825V6.689L21.277.864z" fill="#f2f2f2"/><path data-name="パス 12" d="M23.208 17.532l-11.985 3.524V6.688l11.986-3.524z" fill="#e9e9e9"/><path data-name="パス 13" d="M23.979 20.599l-12.756.457V6.688l12.756-.457z" fill="#d8d8d8"/><path data-name="パス 14" d="M20.511.422l.766.442-10.054 5.825-.766-.443z" fill="#e5e5e5"/><path data-name="パス 15" d="M10.457 20.614L.404 26.439V12.072l10.054-5.825z" fill="#e9e9e9"/><path data-name="パス 16" d="M11.224 21.056L1.171 26.881V12.514l10.055-5.826z" fill="#d8d8d8"/><path data-name="パス 17" d="M10.458 6.247l.766.442-10.055 5.826-.766-.443z" fill="#e9e9e9"/><path data-name="パス 18" d="M1.17 12.515l-.766-.443V26.44l.766.442z" fill="#cacacc"/><path data-name="パス 19" d="M9.506 6.796v-.2l.017-.107 1.62-.934.243-.041.017.188z" fill="#183170"/><path data-name="パス 20" d="M3.486 27.273l7.738-6.217V6.689l-7.738 6.217z" fill="#f2f2f2"/></g></g></g><path data-name="パス 1157" d="M50.903 26.419l-5.287-9.6h-1.484v9.6H37.94V1h10.392a11.44 11.44 0 015.124 1.05 7.233 7.233 0 013.168 2.879 8.033 8.033 0 011.05 4.074 7.566 7.566 0 01-1.43 4.526 7.7 7.7 0 01-4.218 2.824l5.865 10.066zm-6.771-13.977h3.838a3.514 3.514 0 002.553-.833 3.143 3.143 0 00.851-2.354 3.045 3.045 0 00-.851-2.281 3.514 3.514 0 00-2.553-.833h-3.838zm27.519 14.266a11.152 11.152 0 01-5.341-1.267 9.28 9.28 0 01-3.73-3.621 10.82 10.82 0 01-1.358-5.5 10.733 10.733 0 011.376-5.486 9.336 9.336 0 013.766-3.639 11.259 11.259 0 015.359-1.267 11.259 11.259 0 015.357 1.264 9.336 9.336 0 013.766 3.639 10.733 10.733 0 011.376 5.486 10.623 10.623 0 01-1.393 5.485 9.427 9.427 0 01-3.8 3.639 11.366 11.366 0 01-5.378 1.267zm0-5.359a4.034 4.034 0 003.023-1.3 5.178 5.178 0 001.249-3.73 5.275 5.275 0 00-1.213-3.73 3.92 3.92 0 00-2.987-1.3 3.929 3.929 0 00-3.005 1.285 5.314 5.314 0 00-1.195 3.748 5.379 5.379 0 001.177 3.73 3.809 3.809 0 002.951 1.297zm23.97 5.359a11.152 11.152 0 01-5.341-1.267 9.28 9.28 0 01-3.729-3.621 10.82 10.82 0 01-1.358-5.5 10.733 10.733 0 011.376-5.486 9.336 9.336 0 013.766-3.639 11.259 11.259 0 015.359-1.267 11.259 11.259 0 015.359 1.267 9.336 9.336 0 013.766 3.639 10.733 10.733 0 011.376 5.486 10.623 10.623 0 01-1.395 5.482 9.427 9.427 0 01-3.8 3.639 11.366 11.366 0 01-5.379 1.267zm0-5.359a4.034 4.034 0 003.023-1.3 5.178 5.178 0 001.249-3.73 5.275 5.275 0 00-1.213-3.732 3.92 3.92 0 00-2.987-1.3 3.929 3.929 0 00-3.005 1.285 5.314 5.314 0 00-1.195 3.748 5.379 5.379 0 001.177 3.73 3.809 3.809 0 002.951 1.299zm26.034-.181v5.25h-3.15a7.711 7.711 0 01-5.25-1.648q-1.883-1.648-1.883-5.377V11.36h-2.462V6.218h2.462V1.29h6.192v4.924h4.055v5.146h-4.056v8.111a1.7 1.7 0 00.435 1.3 2.121 2.121 0 001.448.4zm12.565 5.54a11.613 11.613 0 01-4.707-.905 8.039 8.039 0 01-3.259-2.48 6.524 6.524 0 01-1.34-3.53h6.119a2.353 2.353 0 00.978 1.7 3.459 3.459 0 002.136.652 3.049 3.049 0 001.793-.452 1.386 1.386 0 00.634-1.177 1.358 1.358 0 00-.905-1.285 18.288 18.288 0 00-2.933-.923 27.535 27.535 0 01-3.622-1.068 6.256 6.256 0 01-2.5-1.774 4.835 4.835 0 01-1.05-3.277 5.564 5.564 0 01.96-3.168 6.46 6.46 0 012.825-2.261 10.815 10.815 0 014.436-.833 8.892 8.892 0 015.993 1.883 7.326 7.326 0 012.517 5h-5.721a2.466 2.466 0 00-.923-1.666 3.2 3.2 0 00-2.046-.616 2.828 2.828 0 00-1.666.416 1.33 1.33 0 00-.579 1.141 1.392 1.392 0 00.923 1.3 14.789 14.789 0 002.879.869 31.493 31.493 0 013.657 1.141 6.308 6.308 0 012.48 1.81 5.123 5.123 0 011.1 3.349 5.316 5.316 0 01-1 3.168 6.586 6.586 0 01-2.861 2.191 10.94 10.94 0 01-4.318.795z" fill="#0f88ec"/></g></g></svg>